<svg xmlns="http://www.w3.org/2000/svg" width="34" height="30" viewBox="0 0 34 30">
    <g fill="none" fill-rule="evenodd">
        <g fill="#FFF" fill-rule="nonzero">
            <g>
                <path d="M8.854 0c-2.28 0-4.556.903-6.276 2.711-3.44 3.615-3.435 9.403 0 13.02l13.176 13.881c.236.248.563.388.905.388.342 0 .67-.14.905-.388l13.19-13.868c3.44-3.615 3.44-9.405 0-13.02s-9.125-3.615-12.565 0l-1.523 1.603-1.537-1.616C13.41.903 11.134 0 8.854 0zm-.001 2.5c1.606 0 3.209.65 4.467 1.955l2.448 2.534c.236.244.563.383.905.383.342 0 .669-.139.905-.383l2.435-2.521c2.516-2.61 6.418-2.61 8.934 0 2.515 2.609 2.515 6.844 0 9.453-4.095 4.247-8.186 8.499-12.28 12.746L4.386 13.908c-2.515-2.612-2.516-6.844 0-9.453C5.643 3.15 7.246 2.5 8.852 2.5z" transform="translate(-310 -66) translate(310 66)"/>
            </g>
        </g>
    </g>
</svg>
