<?xml version="1.0" encoding="UTF-8"?>
<svg width="125px" height="125px" viewBox="0 0 125 125" version="1.1" xmlns="http://www.w3.org/2000/svg" xmlns:xlink="http://www.w3.org/1999/xlink">
    <!-- Generator: Sketch 49.3 (51167) - http://www.bohemiancoding.com/sketch -->
    <title>5-6-7</title>
    <desc>Created with Sketch.</desc>
    <defs>
        <polygon id="path-1" points="9.32944284e-06 0 73.3186328 0 73.3186328 76.4807237 9.32944284e-06 76.4807237"></polygon>
    </defs>
    <g id="5-6-7" stroke="none" stroke-width="1" fill="none" fill-rule="evenodd">
        <g id="Group-6" transform="translate(0.000000, 8.000000)">
            <g id="wolken" transform="translate(39.000000, 22.579978)">
                <path d="M84.2112902,35.1499832 C84.2112902,28.934774 79.2276304,23.8960445 73.0793837,23.8960445 C70.9451262,23.8960445 68.9515945,24.5043146 67.2576345,25.557531 C67.6024214,24.1405167 67.7864996,22.6599876 67.7864996,21.1354603 C67.7864996,10.9448388 59.6147471,2.68345894 49.534305,2.68345894 C39.4540322,2.68345894 31.2822797,10.9448388 31.2822797,21.1354603 C31.2822797,21.3439807 31.286852,21.551474 31.2936258,21.7581112 C29.7168527,20.8925289 27.9099395,20.4006742 25.9893956,20.4006742 C19.8413182,20.4006742 14.8573197,25.4390613 14.8573197,31.6544416 C14.8573197,31.972187 14.8735769,32.286166 14.8993174,32.597577 C14.0790092,32.3676567 13.2155181,32.2419967 12.3228995,32.2419967 C7.00562971,32.2419967 2.69528643,36.5996965 2.69528643,41.9753457 L81.9281783,41.9751745 C83.3594839,40.0817133 84.2112902,37.7169413 84.2112902,35.1499832 Z" id="Fill-5" fill="#BDDEF6"></path>
                <path d="M29.3318019,18.7986902 L29.6308738,18.9920255 C29.6359073,18.9622415 29.6409672,18.9325007 29.6460536,18.9028033 C29.6462256,18.9023782 29.6462571,18.9019046 29.6462887,18.901431 C30.537186,13.7009024 32.2395626,9.82880484 34.7534185,7.28513826 C37.5628627,4.44237819 40.0272417,2.01517926 44.6257661,0.947776238 C44.6316783,0.96067319 44.6375753,0.973579454 44.6434571,0.986495012 C45.5992599,0.747958145 46.5822628,0.578713464 47.5867829,0.484646766 C47.7550082,0.46944635 47.9256589,0.455676216 48.0988048,0.443362975 C48.5456586,0.41313115 48.9965229,0.397761614 49.4509079,0.397761614 C60.3957315,0.397761614 69.3000443,9.29777227 69.3000443,20.2369241 C69.3000443,20.974863 69.2592375,21.7119414 69.177624,22.4438569 C70.5230422,21.967673 71.9464581,21.7210623 73.3903635,21.7210623 C80.3435273,21.7210623 86,27.3750369 86,34.3243627 C86,37.1124567 85.1055225,39.7558198 83.4129885,41.968948 C83.1686644,42.2886985 82.789523,42.4761088 82.3869651,42.4761088 L57.346071,42.4761088 C55.6618017,42.4761088 55.7000258,39.8946996 57.3465876,39.8946996 L81.724759,39.8946996 C82.8341178,38.2448349 83.4171208,36.3318386 83.4171208,34.3243627 C83.4171208,28.7982539 78.9190783,24.3024716 73.3901913,24.3024716 C71.5347746,24.3024716 69.7217143,24.8139348 68.1474683,25.7812749 C67.1842907,26.3729339 65.9475184,25.4685802 66.2169809,24.3733743 C66.5489448,23.0243298 66.7173373,21.632606 66.7173373,20.236752 C66.7173373,10.7208171 58.971799,2.97899875 49.4509079,2.97899875 C41.5777838,2.97899875 34.9188765,8.27346908 32.8366981,15.5329081 C32.3504604,17.2447266 32.1367845,19.0420758 32.195498,20.8199784 C32.2278679,21.7979883 31.1526009,22.4655408 30.2885993,21.9969289 C28.832297,21.2065014 27.1805697,20.7888294 25.5117966,20.7888294 C19.9829097,20.7888294 15.4848671,25.2846117 15.4848671,30.8107205 C15.4848671,31.068001 15.4972641,31.3431792 15.522919,31.6519157 C15.5959235,32.5290786 14.7419084,33.2382778 13.8909926,33.0026811 C13.1478617,32.7966847 12.3828638,32.6922237 11.6164886,32.6922237 C7.37000173,32.6922237 3.84099088,35.8220963 3.21700886,39.8948717 L52.2646811,39.8948717 C53.9384474,39.8948717 53.8935083,42.4762809 52.2641645,42.4762809 L1.82751249,42.4762809 C1.114341,42.4762809 0.53615899,41.8982174 0.53615899,41.1855763 C0.53615899,35.0788225 5.50683689,30.1108144 11.6163164,30.1108144 C12.0510721,30.1108144 12.4854834,30.1366285 12.917312,30.1877404 C13.2432496,23.5261558 18.7676599,18.2074202 25.5117966,18.2074202 C26.8104957,18.2074202 28.1015972,18.4089495 29.3318019,18.7986902 Z" id="Combined-Shape" fill="#000000"></path>
            </g>
            <g id="sun" transform="translate(32.450001, 0.000000)">
                <path d="M38.7974758,2.13206677 L43.7077624,7.74429053 C45.2191526,9.47171327 47.5726632,10.2286437 49.8210782,9.71031251 L57.1262814,8.02655597 C58.510292,7.70762881 59.8584677,8.67707794 59.979674,10.07842 L60.6192821,17.4755926 C60.8162235,19.752345 62.2706994,21.7340153 64.397607,22.6228385 L71.3075721,25.5107686 C72.6166004,26.0578628 73.1316897,27.6265671 72.3973751,28.8308897 L68.5220851,35.1875252 C67.3292944,37.1440092 67.3292944,39.593489 68.5220851,41.5499729 L72.3973751,47.9066084 C73.1315391,49.110931 72.6166004,50.6796354 71.3075721,51.2267296 L64.397607,54.1146597 C62.27085,55.0036319 60.8162235,56.9851531 60.6192821,59.2619055 L59.979674,66.6590781 C59.8584677,68.0604202 58.510292,69.0300184 57.1262814,68.7109422 L49.8210782,67.0271856 C47.5725127,66.5090035 45.219002,67.2659339 43.7077624,68.9932076 L38.7974758,74.6052823 C37.8672737,75.6686212 36.2007996,75.6686212 35.2705976,74.6052823 L30.360311,68.9932076 C28.8489208,67.2657849 26.4954101,66.5088545 24.2469951,67.0271856 L16.941792,68.7109422 C15.5577814,69.0298693 14.2096057,68.0604202 14.0883993,66.6590781 L13.4487913,59.2619055 C13.2518498,56.9851531 11.7973739,55.0034828 9.67061696,54.1146597 L2.76065184,51.2267296 C1.45162352,50.6796354 0.936534272,49.110931 1.67084887,47.9066084 L5.54613883,41.5499729 C6.73892954,39.593489 6.73892954,37.1440092 5.54613883,35.1875252 L1.67084887,28.8308897 C0.936684838,27.6265671 1.45162352,26.0578628 2.76065184,25.5107686 L9.67061696,22.6228385 C11.7973739,21.7338663 13.2520004,19.752345 13.4487913,17.4755926 L14.0883993,10.07842 C14.2096057,8.67707794 15.5577814,7.70747978 16.941792,8.02655597 L24.2469951,9.71031251 C26.4955607,10.2284946 28.8490713,9.47156424 30.360311,7.74429053 L35.2705976,2.13206677 C36.2007996,1.06872787 37.8672737,1.06872787 38.7974758,2.13206677" id="Fill-1" fill="#FBC617"></path>
                <path d="M37.5942689,9.06254269 C38.2772955,9.06254269 41.3865335,11.9305956 42.0360374,12.0470352 C43.3880232,13.0188068 45.141983,13.5528488 46.8227614,13.4926162 C47.4595446,13.7174446 51.7001765,13.1555227 52.2779955,13.485609 C53.2764955,13.5034998 54.2479079,14.1803704 54.5992985,15.0866913 C55.1470368,15.4731337 55.9764264,19.6072627 56.445895,20.0830103 C56.9660967,21.6502491 58.0769878,23.1035827 59.4834481,24.0395726 C59.8691097,24.5821127 63.6414703,26.605121 63.9262642,27.2131118 C64.7276682,27.8081318 65.1193161,28.9224338 64.8741808,29.8620018 C65.0959699,30.4847526 63.3378197,34.3125007 63.4461701,34.980575 C62.9485663,36.5445338 62.9978029,38.3702954 63.5907371,39.9610904 C63.5907371,40.7210044 65.4403267,44.6426795 65.2954604,45.3601028 C65.5811523,46.3543869 65.2254217,47.5237033 64.4554453,48.1731413 C64.2284182,48.8893718 60.496764,51.0189797 60.1369927,51.6648396 C58.7523821,52.6975891 57.6500213,54.2444025 57.1272754,55.900201 C56.6537661,56.4762864 55.805969,60.7040442 55.2278507,61.1756173 C54.859998,62.1275598 53.8686815,62.8475176 52.8474339,62.905961 C52.2262148,63.311338 47.9315574,62.8150159 47.2329665,63.0930695 C45.4968157,63.0800987 43.6811979,63.6515624 42.2624659,64.6495738 C41.5424743,64.7941915 38.3570618,67.6771535 37.5939696,67.6771535 C36.7545531,68.2089591 35.5532702,68.1904719 34.7232821,67.6224373 C34.0160112,67.5528121 30.887767,64.610363 30.2252431,64.4160982 C28.864278,63.3730614 27.1059782,62.7653687 25.426397,62.7500124 C24.7954504,62.4415443 20.5670902,62.9181864 20.0094747,62.5019259 C19.0227975,62.4385625 18.0656023,61.7159211 17.7306738,60.7641277 C17.2155604,60.2934491 16.4267274,56.0755313 16.0069443,55.5171876 C15.5328364,53.877789 14.4749233,52.3536374 13.1287741,51.3484696 C12.8115049,50.7333224 9.11591754,48.6403908 8.91642705,47.9657565 C8.16111688,47.3377875 7.81735871,46.191282 8.11277822,45.2210014 C7.98542158,44.5469635 9.84488838,40.6721028 9.84488838,39.9609413 C10.4376729,38.405928 10.4813723,36.6146063 9.9729933,35.0831492 C10.0692216,34.4529439 8.29236455,30.6603811 8.48946055,30.0693866 C8.23145486,29.1466658 8.6084365,28.0481674 9.39367773,27.4677583 C9.64779238,26.8877965 13.384086,24.8887917 13.7293407,24.365037 C15.0991354,23.4455962 16.1700686,22.0047862 16.6479179,20.4453001 C17.0699458,19.9774543 17.8492008,15.8452635 18.3445598,15.453901 C18.6682641,14.5445984 19.611242,13.8629569 20.5810082,13.8382079 C21.1068968,13.4944053 25.2938025,14.0356036 25.8758118,13.782448 C27.511095,13.8164407 29.2188114,13.2504933 30.524853,12.2402565 C31.128263,12.081326 34.1921555,9.16392419 34.8310339,9.10712073 C35.626302,8.54594429 36.791518,8.53073706 37.5942689,9.06254269" id="Fill-3" fill="#FFE17D"></path>
                <path d="M36.3668307,16.0147511 C48.7126045,16.0147511 58.7207541,26.0229007 58.7207541,38.3686746 C58.7207541,50.7144484 48.7126045,60.722598 36.3668307,60.722598 C24.0210568,60.722598 14.0129072,50.7144484 14.0129072,38.3686746 C14.0129072,26.0229007 24.0210568,16.0147511 36.3668307,16.0147511" id="Fill-5" fill="#FBC617"></path>
                <path d="M48.8449909,42.0387217 L47.2435158,42.0387217 C46.5800247,42.0387217 46.0424095,41.590709 46.0424095,41.0377997 C46.0424095,40.4850239 46.5800247,40.0368778 47.2435158,40.0368778 L48.8449909,40.0368778 C49.5084821,40.0368778 50.0460972,40.4850239 50.0460972,41.0377997 C50.0460972,41.590709 49.5084821,42.0387217 48.8449909,42.0387217" id="Fill-7" fill="#FEE57B"></path>
                <path d="M26.1574268,42.0387217 L24.5559517,42.0387217 C23.8924606,42.0387217 23.3548454,41.590709 23.3548454,41.0377997 C23.3548454,40.4850239 23.8924606,40.0368778 24.5559517,40.0368778 L26.1574268,40.0368778 C26.820918,40.0368778 27.3585332,40.4850239 27.3585332,41.0377997 C27.3585332,41.590709 26.820918,42.0387217 26.1574268,42.0387217" id="Fill-9" fill="#FEE57B"></path>
                <g id="Group-13">
                    <mask id="mask-2" fill="white">
                        <use xlink:href="#path-1"></use>
                    </mask>
                    <g id="Clip-12"></g>
                    <path d="M71.0116951,49.3648556 C70.9024354,49.6994589 70.6635329,49.9590753 70.338152,50.0960535 L63.4598887,52.990522 C60.9514126,54.0463151 59.2486703,56.3822648 59.0165123,59.0862783 L58.3796888,66.5005809 C58.3495637,66.8511675 58.1758573,67.1579869 57.8901935,67.3647239 C57.6048294,67.5716104 57.2584658,67.641668 56.9142004,67.5616022 L49.6425124,65.8740958 C46.9895557,65.2583659 44.235133,66.1507411 42.4523569,68.202278 L37.5647478,73.827797 C37.3337888,74.0935378 37.0120048,74.2399268 36.6591965,74.2399268 C36.3062383,74.2399268 35.9846042,74.0935378 35.7534953,73.8276476 L30.8657363,68.202278 C29.4560018,66.5797504 27.4380702,65.6822964 25.3438516,65.6822964 C24.7899096,65.6822964 24.230572,65.7450345 23.6758806,65.8739465 L16.4040427,67.5614528 C16.0605267,67.641668 15.7137135,67.571461 15.4281995,67.3645746 C15.1426856,67.1578375 14.9688293,66.8510181 14.9387042,66.5005809 L14.3020306,59.0861289 C14.0698725,56.3821155 12.3671303,54.0463151 9.85835447,52.9903726 L2.98009117,50.0959042 C2.65500993,49.9590753 2.41595757,49.6993096 2.30684778,49.3648556 C2.19773799,49.0304016 2.23820453,48.6801137 2.42045386,48.3789707 L6.27781473,42.0076148 C7.68485144,39.6837645 7.68485144,36.7966155 6.27781473,34.4729147 L2.42045386,28.1015588 C2.23805466,27.8004158 2.19773799,27.4502773 2.30684778,27.1156739 C2.41595757,26.7812199 2.65500993,26.5216035 2.98024104,26.3847747 L9.85850435,23.4901568 C12.3672802,22.4343637 14.0700224,20.0985634 14.3021805,17.3944006 L14.9388541,9.98009797 C14.9689792,9.62966069 15.1428355,9.32269199 15.4283494,9.11595491 C15.7140132,8.90921783 16.0605267,8.83901088 16.4041926,8.91907668 L23.6760305,10.6067324 C26.3286874,11.2221636 29.0834099,10.3300871 30.8658862,8.27840087 L35.7536452,2.65332997 C35.9847541,2.38699167 36.3063882,2.2406027 36.6593464,2.2406027 C37.0123046,2.2406027 37.3337888,2.38699167 37.5648977,2.65288184 L42.4526567,8.27825149 C44.2352829,10.3297884 46.9895557,11.2223129 49.6426622,10.606583 L56.9145002,8.9189273 C57.2583159,8.8388615 57.6046795,8.90906845 57.8903434,9.11580553 C58.1758573,9.32269199 58.3495637,9.62951132 58.3798387,9.97994859 L59.0166622,17.3942512 C59.2489701,20.098414 60.9515625,22.4342144 63.4600385,23.4900075 L70.3384517,26.3847747 C70.6636828,26.5216035 70.9027352,26.7810705 71.011845,27.1156739 C71.1208049,27.4502773 71.0804882,27.8002664 70.898089,28.1015588 L67.0405783,34.4729147 C65.6336914,36.7967649 65.6336914,39.6839139 67.0405783,42.0076148 L70.898089,48.3789707 C71.0803383,48.6802631 71.120655,49.0304016 71.0116951,49.3648556 Z M68.965287,40.8500963 C67.9906428,39.2405645 67.9906428,37.2404131 68.965287,35.6307319 L72.8227977,29.2593761 C73.3397204,28.40554 73.4588719,27.372004 73.1496775,26.4234632 C72.8404831,25.4750718 72.1344169,24.708621 71.2126789,24.3208396 L64.3344156,21.4262217 C62.5966024,20.6948744 61.4169277,19.0766787 61.2562605,17.2034974 L60.619437,9.78934417 C60.5341575,8.79569169 60.0209818,7.88957384 59.2113512,7.30342045 C58.4020203,6.71741643 57.3789661,6.51097811 56.4043219,6.73698475 L49.132484,8.42464046 C47.2957526,8.85111037 45.3867809,8.23313979 44.1519518,6.81182238 L39.2643427,1.18630336 C38.6093842,0.432400157 37.6599191,-4.48129505e-05 36.6593464,-4.48129505e-05 C35.6587736,-4.48129505e-05 34.7091587,0.432400157 34.0543501,1.18615398 L29.1664412,6.81152363 C27.9314623,8.23299041 26.0230901,8.85081162 24.185909,8.42434171 L16.9140711,6.736686 C15.9397266,6.5103806 14.9165226,6.7169683 14.1070418,7.30312169 C13.2975611,7.88927508 12.7843853,8.79524356 12.698956,9.78904542 L12.0622823,17.2031987 C11.9014653,19.0765294 10.7219405,20.6945756 8.98397737,21.425923 L2.10571407,24.3205408 C1.18397613,24.7084716 0.478059757,25.474773 0.168865388,26.4231644 C-0.140328981,27.3715558 -0.0211774912,28.4053906 0.495745136,29.2590773 L4.35310601,35.6304332 C5.32775021,37.2402637 5.32775021,39.2402657 4.35310601,40.8497975 L0.495745136,47.2211534 C-0.0211774912,48.0749895 -0.140328981,49.1086749 0.168865388,50.0572157 C0.478059757,51.0054577 1.18397613,51.7717591 2.10571407,52.1596899 L8.98397737,55.0543077 C10.7217906,55.7856551 11.9013154,57.4038507 12.0622823,59.277032 L12.698956,66.6913347 C12.7843853,67.6851365 13.2975611,68.5909556 14.1070418,69.1772584 C14.9165226,69.7634118 15.9398765,69.9695514 16.9140711,69.7436941 L24.185909,68.055889 C26.0232399,67.6295685 27.931762,68.2475391 29.1665911,69.6687071 L34.0542002,75.2939274 C34.7091587,76.0484281 35.6587736,76.4807237 36.6593464,76.4807237 C37.6599191,76.4807237 38.6093842,76.0484281 39.2643427,75.2945249 L44.1518019,69.669454 C45.3867809,68.2479872 47.2951531,67.6297178 49.132484,68.0563371 L56.4043219,69.7441422 C57.3785165,69.9699995 58.4017206,69.7638599 59.2113512,69.1777065 C60.0208319,68.5914038 60.5340077,67.6852859 60.619437,66.6917828 L61.2562605,59.2774802 C61.4170776,57.4041495 62.5966024,55.7861032 64.3344156,55.0549052 L71.2125291,52.160138 C72.134267,51.7722073 72.8403332,51.0057564 73.1496775,50.0575144 C73.4590217,49.1089736 73.3398702,48.0752882 72.8227977,47.2214522 L68.965287,40.8500963 Z" id="Fill-11" fill="#000000" mask="url(#mask-2)"></path>
                </g>
                <path d="M39.0517697,43.7878244 C39.4801632,43.3834281 39.4748561,42.7326392 39.0396816,42.3342726 C38.6048018,41.9359059 37.9047191,41.9408393 37.4761783,42.3455096 C37.2690576,42.5409244 36.9922087,42.6498689 36.6969328,42.6520615 C36.4016568,42.654117 36.1230389,42.5492837 35.9128225,42.3566096 C35.4777953,41.958243 34.7777126,41.9633133 34.3493192,42.3677096 C33.9207784,42.7721059 33.9260854,43.4228948 34.3611125,43.8211244 C34.9923516,44.3991466 35.8279103,44.7140577 36.7138857,44.707754 C37.5995662,44.7013133 38.4299654,44.37448 39.0517697,43.7878244" id="Fill-14" fill="#000000"></path>
                <path d="M41.8162946,39.3695965 C42.4306382,39.3695965 42.9284301,38.8470708 42.9284301,38.2018542 C42.9284301,37.5578833 43.4272599,37.034112 44.0405656,37.034112 C44.6538712,37.034112 45.1527011,37.5578833 45.1527011,38.2018542 C45.1527011,38.8470708 45.6504929,39.3695965 46.2648366,39.3695965 C46.8791802,39.3695965 47.3769721,38.8470708 47.3769721,38.2018542 C47.3769721,36.2702528 45.880186,34.6986274 44.0405656,34.6986274 C42.2009452,34.6986274 40.7041591,36.2702528 40.7041591,38.2018542 C40.7041591,38.8470708 41.2019509,39.3695965 41.8162946,39.3695965" id="Fill-16" fill="#000000"></path>
                <path d="M29.3603771,34.6986274 C27.5207567,34.6986274 26.0239706,36.2702528 26.0239706,38.2018542 C26.0239706,38.8469151 26.5217624,39.3695965 27.1361061,39.3695965 C27.7504497,39.3695965 28.2482416,38.8469151 28.2482416,38.2018542 C28.2482416,37.5578833 28.7470714,37.034112 29.3603771,37.034112 C29.9736827,37.034112 30.4725125,37.5578833 30.4725125,38.2018542 C30.4725125,38.8469151 30.9703044,39.3695965 31.584648,39.3695965 C32.1989917,39.3695965 32.6967835,38.8469151 32.6967835,38.2018542 C32.6967835,36.2702528 31.1999974,34.6986274 29.3603771,34.6986274" id="Fill-18" fill="#000000"></path>
                <path d="M46.2648366,33.3640648 C46.8791802,33.3640648 47.3769721,32.9159187 47.3769721,32.3631429 C47.3769721,31.8103671 46.8791802,31.3622209 46.2648366,31.3622209 L41.8162946,31.3622209 C41.2019509,31.3622209 40.7041591,31.8103671 40.7041591,32.3631429 C40.7041591,32.9159187 41.2019509,33.3640648 41.8162946,33.3640648 L46.2648366,33.3640648 Z" id="Fill-20" fill="#000000"></path>
                <path d="M31.584648,31.3622209 L27.1361061,31.3622209 C26.5219107,31.3622209 26.0239706,31.8103671 26.0239706,32.3631429 C26.0239706,32.9159187 26.5219107,33.3640648 27.1361061,33.3640648 L31.584648,33.3640648 C32.1988434,33.3640648 32.6967835,32.9159187 32.6967835,32.3631429 C32.6967835,31.8103671 32.1988434,31.3622209 31.584648,31.3622209" id="Fill-22" fill="#000000"></path>
                <path d="M37.034112,14.6801885 C31.5529723,14.6801885 26.2080978,16.596023 21.9841776,20.0749968 C21.5033389,20.4710081 21.4346047,21.1819635 21.830616,21.6628022 C22.2266273,22.1436409 22.9375827,22.2125255 23.4184214,21.8163637 C27.2394118,18.6693296 32.074871,16.9362348 37.034112,16.9362348 C48.8520344,16.9362348 58.4665517,26.5507521 58.4665517,38.3686746 C58.4665517,50.186597 48.8520344,59.8011143 37.034112,59.8011143 C25.2161895,59.8011143 15.6016722,50.186597 15.6016722,38.3686746 C15.6016722,33.4595178 17.3046864,28.661509 20.3968234,24.858567 C20.7898267,24.3751714 20.7165804,23.6646673 20.2331848,23.271664 C19.7499397,22.8786607 19.0394356,22.951907 18.6462819,23.4353026 C15.228071,27.6393696 13.3456259,32.9427328 13.3456259,38.3686746 C13.3456259,51.430581 23.9722056,62.0571606 37.034112,62.0571606 C50.0960184,62.0571606 60.722598,51.430581 60.722598,38.3686746 C60.722598,25.3067682 50.095868,14.6801885 37.034112,14.6801885" id="Fill-24" fill="#000000"></path>
            </g>
            <g id="wolken" transform="translate(0.000000, 35.579978)">
                <path d="M65.7228747,24.8403971 C65.7228747,12.4997668 55.6903149,2.49580537 43.3146473,2.49580537 C31.6699657,2.49580537 22.1011107,11.3531816 21.0110185,22.6798856 C19.3962456,22.0396628 17.6373483,21.6835029 15.793856,21.6835029 C7.9901648,21.6835029 1.66387025,27.9917639 1.66387025,35.7732103 L62.8599065,35.7732103 C64.6821897,32.5415753 65.7228747,28.8122296 65.7228747,24.8403971" id="Fill-1" fill="#80C7EA"></path>
                <path d="M121.462528,61.8639296 C121.462528,53.047005 114.392685,45.8990399 105.670754,45.8990399 C102.643086,45.8990399 99.8150527,46.7619347 97.4119932,48.2560323 C97.9011094,46.2458493 98.1622436,44.1455638 98.1622436,41.9828624 C98.1622436,27.5263992 86.5697576,15.8067673 72.2695954,15.8067673 C57.9696735,15.8067673 46.3771875,27.5263992 46.3771875,41.9828624 C46.3771875,42.2786704 46.3836738,42.5730212 46.3932832,42.8661577 C44.1564655,41.6382387 41.5931699,40.9404912 38.8686775,40.9404912 C30.1469863,40.9404912 23.0766629,48.0879706 23.0766629,56.9051381 C23.0766629,57.3558932 23.0997254,57.8013053 23.1362409,58.2430744 C21.972548,57.9169084 20.7475954,57.7386464 19.4813226,57.7386464 C11.9382189,57.7386464 5.82354586,63.9204997 5.82354586,71.5464206 L118.223695,71.5461777 C120.254152,68.8601049 121.462528,65.5054283 121.462528,61.8639296 Z" id="Fill-5" fill="#BDDEF6"></path>
                <path d="M45.463172,33.4251433 L3.73919481,33.4251433 C4.61406558,27.5004996 9.73559469,22.9386994 15.9024958,22.9386994 C17.4644215,22.9386994 18.9917179,23.231218 20.4418198,23.8073619 C21.5415405,24.2445775 22.7910811,23.4790296 22.9036263,22.3043883 C23.3891579,17.2464842 25.7328882,12.5647442 29.5029127,9.12134098 C33.2967448,5.65630534 38.2191554,3.74808406 43.3630493,3.74808406 C51.2804134,3.74808406 58.5148107,8.36805146 61.903432,15.4144572 C55.5922421,17.907956 50.4288693,22.6581988 47.3774028,28.6229827 C47.3728336,28.631876 47.3682645,28.6410097 47.3636953,28.649903 C46.8822519,29.593558 45.6416091,32.8143875 45.463172,33.4251433 M105.514706,43.268623 C103.49803,43.268623 101.509972,43.6130595 99.6308514,44.2781368 C99.7448395,43.2558839 99.8018335,42.2264203 99.8018335,41.1957549 C99.8018335,25.9172456 87.3653459,13.4867667 72.078915,13.4867667 C69.764283,13.4867667 67.5150619,13.7723149 65.3644381,14.3090397 C61.4768182,5.77239941 52.837289,0.142677938 43.3628088,0.142677938 C37.3161484,0.142677938 31.5299291,2.38620199 27.0694829,6.45983018 C23.1871537,10.0056269 20.5916396,14.6715032 19.6241835,19.7736335 C18.4099937,19.4808746 17.1647818,19.3332933 15.9022553,19.3332933 C7.13382808,19.3332933 -4.80962493e-05,26.4635848 -4.80962493e-05,35.2278463 C-4.80962493e-05,36.2236595 0.807728411,37.0305494 1.80356125,37.0305494 L44.6705458,37.0305494 C44.5560768,37.7884057 44.469744,38.5561169 44.4180405,39.332481 C42.5692207,38.692882 40.6126653,38.3611846 38.6436048,38.3611846 C29.2241949,38.3611846 21.5083541,45.7897634 21.0531231,55.0938744 C20.4499961,55.0224874 19.843262,54.9864333 19.2360468,54.9864333 C10.7030507,54.9864333 3.76059764,61.9251575 3.76059764,70.4543466 C3.76059764,71.4496791 4.56813366,72.2570497 5.56420699,72.2570497 L76.008138,72.2570497 C78.2838121,72.2570497 78.3465777,68.6516436 76.0088595,68.6516436 L7.50489064,68.6516436 C8.37639468,62.9632742 13.3052983,58.5918394 19.2362873,58.5918394 C20.3066693,58.5918394 21.3751275,58.7377382 22.4130446,59.0254496 C23.6015029,59.354503 24.7942899,58.3639777 24.6923258,57.1388607 C24.6564941,56.7076542 24.6391795,56.3233179 24.6391795,55.9639791 C24.6391795,48.245766 30.9215115,41.9665907 38.6436048,41.9665907 C40.9743491,41.9665907 43.2812857,42.5499454 45.3152761,43.6539208 C46.522011,44.3084222 48.0238163,43.3760641 47.9786059,42.010096 C47.8966018,39.5269326 48.195039,37.0166085 48.874158,34.6257435 C48.8799296,34.6043514 48.8864226,34.5829593 48.8924346,34.5618076 C51.7822978,24.4866204 61.0826695,17.0919325 72.078915,17.0919325 C85.376566,17.0919325 96.1946148,27.9047858 96.1946148,41.1955145 C96.1946148,43.1450778 95.9594242,45.0888724 95.4957763,46.9730577 C95.1194232,48.5027113 96.8468,49.7658052 98.1920521,48.9394462 C100.390772,47.5883803 102.92304,46.8740292 105.514466,46.8740292 C113.236559,46.8740292 119.518891,53.1532045 119.518891,60.8714175 C119.518891,63.6752217 118.704621,66.347068 117.155201,68.6514032 L83.1066635,68.6514032 C80.8069413,68.6514032 80.7535545,72.2568093 83.105942,72.2568093 L118.080092,72.2568093 C118.642337,72.2568093 119.171876,71.9950568 119.513119,71.5484672 C121.87705,68.4574324 123.12635,64.7654965 123.12635,60.8714175 C123.12635,51.1654239 115.22606,43.268623 105.514706,43.268623" id="Combined-Shape" fill="#000000"></path>
            </g>
        </g>
    </g>
</svg>